<svg id="Layer_1" data-name="Layer 1" xmlns="http://www.w3.org/2000/svg" viewBox="0 0 503 62">
  <defs>
    <style>
      .cls-1, .cls-5 {
        font-size: 34.43px;
        font-family: Adrianna-Extrabold, Adrianna;
        font-weight: 800;
      }

      .cls-1, .cls-4, .cls-5 {
        fill: #010101;
      }

      .cls-2 {
        letter-spacing: -0.03em;
      }

      .cls-3 {
        letter-spacing: -0.04em;
      }

      .cls-5 {
        letter-spacing: -0.02em;
      }

      .cls-6 {
        letter-spacing: 0em;
      }

      .cls-7 {
        letter-spacing: 0em;
      }
    </style>
  </defs>
  <g>
    <text class="cls-1" transform="translate(29.36 43.38) scale(0.93 1)"><tspan class="cls-2">B</tspan><tspan x="23.07" y="0">a</tspan><tspan class="cls-3" x="44.73" y="0">b</tspan><tspan x="66.07" y="0">y</tspan></text>
    <g id="xKQxkx.tif">
      <g>
        <path class="cls-4" d="M156.49,49.76l.15.24h-8.3a.33.33,0,0,1-.33-.16q-5.2-7.5-10.42-15l-.11-.17L140,31.23q6.69-9.09,13.37-18.19a.54.54,0,0,1,.49-.25c.91,0,1.83,0,2.79,0-.07.1-.11.17-.16.23L143.6,30.54a.28.28,0,0,0,0,.39Z"/>
        <path class="cls-4" d="M141.16,28.45,125.37,49.8a.39.39,0,0,1-.38.2h-2.78c.33-.46.64-.89,1-1.32q6-8.27,12.07-16.54a.32.32,0,0,0,0-.45L122.37,13.05l-.15-.24h8.33a.32.32,0,0,1,.3.17l10.32,15.1A.27.27,0,0,1,141.16,28.45Z"/>
      </g>
    </g>
    <text class="cls-5" transform="translate(170.24 43.38) scale(0.93 1)">R<tspan class="cls-6" x="24.65" y="0">esource </tspan><tspan class="cls-2" x="178.84" y="0">C</tspan><tspan class="cls-7" x="203.94" y="0">ompiler</tspan></text>
  </g>
</svg>
