<svg id="Layer_1" data-name="Layer 1" xmlns="http://www.w3.org/2000/svg" viewBox="0 0 190 62">
  <defs>
    <style>
      .cls-1 {
        font-size: 34.43px;
        font-family: Adrianna-Extrabold, Adrianna;
        font-weight: 800;
      }

      .cls-1, .cls-4 {
        fill: #010101;
      }

      .cls-2 {
        letter-spacing: -0.03em;
      }

      .cls-3 {
        letter-spacing: -0.04em;
      }
    </style>
  </defs>
  <g>
    <text class="cls-1" transform="translate(0.36 40.25) scale(0.93 1)"><tspan class="cls-2">B</tspan><tspan x="23.07" y="0">a</tspan><tspan class="cls-3" x="44.73" y="0">b</tspan><tspan x="66.07" y="0">y</tspan></text>
    <g id="xKQxkx.tif">
      <g>
        <path class="cls-4" d="M127.49,46.63c.05.07.09.14.15.24h-8.3a.34.34,0,0,1-.33-.15l-10.42-15-.11-.17L111,28.1Q117.69,19,124.37,9.91a.54.54,0,0,1,.49-.25h2.79l-.16.22L114.6,27.41a.29.29,0,0,0,0,.4Z"/>
        <path class="cls-4" d="M112.16,25.32,96.37,46.68a.43.43,0,0,1-.38.2H93.21c.33-.46.64-.89,1-1.31q6-8.28,12.07-16.55a.32.32,0,0,0,0-.45L93.37,9.92l-.15-.24h8.33a.34.34,0,0,1,.3.17l10.32,15.1A.27.27,0,0,1,112.16,25.32Z"/>
      </g>
    </g>
    <text class="cls-1" transform="translate(141.24 40.25) scale(0.93 1)">RC</text>
  </g>
</svg>
