<svg id="Layer_1" data-name="Layer 1" xmlns="http://www.w3.org/2000/svg" viewBox="0 0 749.89 846.27">
  <defs>
    <style>
      .cls-1 {
        fill: red;
      }

      .cls-2, .cls-3 {
        fill: none;
        stroke: #000;
        stroke-miterlimit: 10;
        stroke-width: 22.21px;
      }

      .cls-3 {
        stroke-linecap: round;
      }

      .cls-4 {
        font-size: 127.18px;
        font-family: Adrianna-Extrabold, Adrianna;
        font-weight: 800;
      }

      .cls-5 {
        letter-spacing: -0.02em;
      }

      .cls-6 {
        letter-spacing: -0.04em;
      }

      .cls-7 {
        letter-spacing: 0em;
      }
    </style>
  </defs>
  <g id="xKQxkx.tif">
    <g>
      <path class="cls-1" d="M813.53,888c.8,1.1,1.55,2.26,2.69,3.93h-4.34q-71.46,0-142.9,0c-2.46,0-4.2-.41-5.84-2.61Q570.91,765.67,478.51,642.08c-.61-.82-1.17-1.68-2-2.86,15-19,29.81-37.71,44.65-56.46Q639.7,433,758.16,283.19A9.62,9.62,0,0,1,766.8,279c16.21.21,32.43.09,49.47.09-1.17,1.57-1.94,2.65-2.76,3.69Q699.29,427.14,585,571.39c-1.88,2.37-2.22,3.84-.25,6.5Q699.25,732.87,813.53,888Z" transform="translate(-125.05 -56.84)"/>
      <path class="cls-1" d="M541.77,537q-140.11,175.77-280,351.7A7.6,7.6,0,0,1,255,892c-14.93-.16-29.88-.07-44.81-.08-1.23,0-2.46-.1-4.36-.19,5.9-7.53,11.4-14.59,16.93-21.63q107-136.32,214-272.55c2.27-2.9,2.15-4.57,0-7.43Q322.65,436.77,208.71,283.25c-.83-1.12-1.62-2.26-2.74-3.83,1.47-.11,2.54-.28,3.61-.28q72,0,144.09-.07a5.85,5.85,0,0,1,5.32,2.82q91.36,124.38,182.89,248.64C543.74,533.07,543.78,534.53,541.77,537Z" transform="translate(-125.05 -56.84)"/>
    </g>
  </g>
  <g id="Baby">
    <path class="cls-2" d="M771.74,586.45c0,148-120.28,305.56-268.64,305.56S234.45,734.46,234.45,586.45s120.28-268,268.65-268S771.74,438.44,771.74,586.45Z" transform="translate(-125.05 -56.84)"/>
    <g>
      <ellipse cx="270.53" cy="548.39" rx="23.07" ry="41.48"/>
      <ellipse cx="487.81" cy="548.39" rx="23.07" ry="41.48"/>
    </g>
    <path class="cls-2" d="M236.72,603.66c-49.78-.93-75.75,59.15-41,94.78a55.81,55.81,0,0,0,60.84,12.76" transform="translate(-125.05 -56.84)"/>
    <path class="cls-2" d="M771.74,592.44c49.77-.92,75.75,59.15,41,94.78A55.8,55.8,0,0,1,751.88,700" transform="translate(-125.05 -56.84)"/>
    <path class="cls-3" d="M578.85,751.66a160.71,160.71,0,0,1-151.51,0" transform="translate(-125.05 -56.84)"/>
    <path d="M480.05,398.12c40.69-15.06,44.35-50.95,30.84-73.78-33.23-7.82-56.47-5.88-79.81-5.88,5.69-77.12,107.28-101.85,147.78-36S551.43,427.85,480.05,398.12Z" transform="translate(-125.05 -56.84)"/>
  </g>
  <g>
    <text class="cls-4" transform="translate(0 112.98)"><tspan class="cls-5">B</tspan><tspan x="85.21" y="0">a</tspan><tspan class="cls-6" x="165.2" y="0">b</tspan><tspan class="cls-7" x="244.05" y="0">y</tspan></text>
    <g id="xKQxkx.tif-2" data-name="xKQxkx.tif">
      <g>
        <path d="M630.44,193.4c.18.25.34.51.6.88H598a1.41,1.41,0,0,1-1.31-.58Q576,166,555.31,138.25c-.14-.18-.26-.38-.44-.64,3.36-4.25,6.68-8.46,10-12.66Q591.46,91.37,618,57.77a2.17,2.17,0,0,1,1.94-.93c3.63,0,7.27,0,11.09,0-.26.35-.43.6-.62.83Q604.83,90,579.2,122.4a1,1,0,0,0-.06,1.46Q604.81,158.62,630.44,193.4Z" transform="translate(-125.05 -56.84)"/>
        <path d="M569.5,114.69q-31.43,39.42-62.8,78.87a1.71,1.71,0,0,1-1.51.74c-3.35,0-6.7,0-10.05,0-.28,0-.55,0-1,0l3.8-4.85q24-30.57,48-61.12a1.13,1.13,0,0,0,0-1.67q-25.61-34.38-51.15-68.81c-.19-.26-.36-.51-.62-.86.34,0,.57-.07.81-.07q16.15,0,32.32,0a1.3,1.3,0,0,1,1.19.63q20.49,27.9,41,55.76A1,1,0,0,1,569.5,114.69Z" transform="translate(-125.05 -56.84)"/>
      </g>
    </g>
    <text class="cls-4" transform="translate(560.02 112.98)">RC</text>
  </g>
</svg>
