<?xml version="1.0" encoding="UTF-8"?>
<svg id="Layer_1" data-name="Layer 1" xmlns="http://www.w3.org/2000/svg" viewBox="0 0 1000 1000">
  <defs>
    <style>
      .cls-1 {
        letter-spacing: 0em;
      }

      .cls-2 {
        letter-spacing: -.02em;
      }

      .cls-3 {
        letter-spacing: -.04em;
      }

      .cls-4 {
        font-family: Adrianna-Extrabold, Adrianna;
        font-size: 127.18px;
        font-weight: 700;
      }

      .cls-5 {
        stroke-linecap: round;
      }

      .cls-5, .cls-6 {
        fill: none;
        stroke: #000;
        stroke-miterlimit: 10;
        stroke-width: 22.21px;
      }

      .cls-7, .cls-8 {
        stroke-width: 0px;
      }

      .cls-8 {
        fill: red;
      }
    </style>
  </defs>
  <g id="xKQxkx.tif">
    <g>
      <path class="cls-8" d="m813.53,888.01c.8,1.1,1.55,2.26,2.69,3.93h-4.33c-47.64,0-95.27-.02-142.91.04-2.46,0-4.2-.41-5.84-2.61-61.49-82.47-123.06-164.88-184.63-247.29-.61-.82-1.17-1.68-1.99-2.86,14.98-18.94,29.82-37.7,44.66-56.46,79.01-99.84,158.04-199.66,236.97-299.57,2.4-3.04,4.81-4.2,8.65-4.15,16.21.21,32.43.08,49.46.08-1.17,1.57-1.93,2.65-2.75,3.69-76.15,96.21-152.28,192.41-228.49,288.57-1.88,2.37-2.22,3.84-.25,6.5,76.31,103.32,152.52,206.73,228.75,310.12Z"/>
      <path class="cls-8" d="m541.77,537.03c-93.42,117.18-186.76,234.42-280.05,351.7-1.85,2.33-3.71,3.32-6.74,3.29-14.93-.16-29.88-.07-44.81-.08-1.23,0-2.46-.1-4.36-.19,5.9-7.53,11.4-14.59,16.93-21.63,71.31-90.88,142.6-181.75,214.01-272.55,2.27-2.9,2.16-4.57.03-7.42-76.09-102.25-152.08-204.57-228.08-306.89-.83-1.12-1.62-2.26-2.74-3.83,1.48-.12,2.54-.28,3.61-.28,48.03-.02,96.06,0,144.09-.08,2.51,0,3.9.88,5.32,2.83,60.91,82.92,121.86,165.81,182.89,248.64,1.86,2.53,1.89,3.99-.11,6.5Z"/>
    </g>
  </g>
  <g id="Baby">
    <path class="cls-6" d="m771.74,586.45c0,148.01-120.28,305.56-268.64,305.56s-268.64-157.55-268.64-305.56,120.28-267.99,268.64-267.99,268.64,119.98,268.64,267.99Z"/>
    <g>
      <ellipse class="cls-7" cx="395.59" cy="605.24" rx="23.07" ry="41.48"/>
      <ellipse class="cls-7" cx="612.87" cy="605.24" rx="23.07" ry="41.48"/>
    </g>
    <path class="cls-6" d="m236.72,603.66c-49.77-.92-75.75,59.15-40.97,94.78,15.81,16.2,39.84,21.24,60.83,12.77"/>
    <path class="cls-6" d="m771.74,592.44c49.77-.92,75.75,59.15,40.97,94.78-15.81,16.2-39.84,21.24-60.83,12.77"/>
    <path class="cls-5" d="m578.85,751.66c-47.33,25.3-104.17,25.3-151.5,0"/>
    <path class="cls-7" d="m480.05,398.12c40.69-15.05,44.35-50.94,30.84-73.77-33.23-7.82-56.47-5.88-79.81-5.88,5.69-77.12,107.28-101.85,147.78-35.97,40.5,65.88-27.43,145.36-98.81,115.63Z"/>
  </g>
  <g>
    <text class="cls-4" transform="translate(125.05 169.82)"><tspan class="cls-2" x="0" y="0">B</tspan><tspan x="85.21" y="0">a</tspan><tspan class="cls-3" x="165.2" y="0">b</tspan><tspan class="cls-1" x="244.05" y="0">y</tspan></text>
    <g id="xKQxkx.tif-2" data-name="xKQxkx.tif">
      <g>
        <path class="cls-7" d="m630.44,193.4c.18.25.35.51.6.88h-.97c-10.68,0-21.36,0-32.05,0-.55,0-.94-.09-1.31-.59-13.79-18.49-27.6-36.97-41.4-55.45-.14-.18-.26-.38-.45-.64,3.36-4.25,6.69-8.46,10.01-12.66,17.72-22.39,35.44-44.77,53.14-67.18.54-.68,1.08-.94,1.94-.93,3.63.05,7.27.02,11.09.02-.26.35-.43.59-.62.83-17.08,21.57-34.15,43.15-51.24,64.71-.42.53-.5.86-.06,1.46,17.11,23.17,34.2,46.36,51.3,69.54Z"/>
        <path class="cls-7" d="m569.5,114.69c-20.95,26.28-41.88,52.57-62.8,78.87-.41.52-.83.75-1.51.74-3.35-.04-6.7-.02-10.05-.02-.28,0-.55-.02-.98-.04,1.32-1.69,2.56-3.27,3.8-4.85,15.99-20.38,31.98-40.76,47.99-61.12.51-.65.48-1.02,0-1.67-17.06-22.93-34.1-45.87-51.15-68.82-.19-.25-.36-.51-.62-.86.33-.03.57-.06.81-.06,10.77,0,21.54,0,32.31-.02.56,0,.87.2,1.19.63,13.66,18.59,27.33,37.18,41.01,55.76.42.57.42.9-.02,1.46Z"/>
      </g>
    </g>
  </g>
</svg>