<svg id="Layer_1" data-name="Layer 1" xmlns="http://www.w3.org/2000/svg" viewBox="0 0 55.32 57.69"><defs><style>.cls-1{font-size:10px;font-family:Adrianna-Extrabold, Adrianna;font-weight:800;letter-spacing:-0.02em;}.cls-1,.cls-5{fill:#1d1d1b;}.cls-2{letter-spacing:0em;}.cls-3{letter-spacing:-0.04em;}.cls-4{letter-spacing:0em;}.cls-6{fill:#e30613;}</style></defs><text class="cls-1" transform="translate(0 8.5)">B<tspan class="cls-2" x="6.7" y="0">a</tspan><tspan class="cls-3" x="12.99" y="0">b</tspan><tspan class="cls-4" x="19.19" y="0">y X RC</tspan></text><path class="cls-5" d="M52.89,38.91c.23-8.47-1.28-17.27-6.77-24A5.69,5.69,0,0,0,43.73,13a12.4,12.4,0,0,0-3.54-.49,60,60,0,0,0-6.84-.07c-4.2.19-9.12.31-12.61,2.93-6.82,5.13-7.91,14.94-7,22.81A66.29,66.29,0,0,0,15,44.9a7.48,7.48,0,0,0,3.18,5c3.52,2.31,8,3,12.1,3.22,4.33.17,9-.08,12.87-2.33a19.76,19.76,0,0,0,5.11-4.71A23.49,23.49,0,0,0,52,39.92a2.51,2.51,0,0,0-1.75-3.07,2.54,2.54,0,0,0-3.07,1.74,15.88,15.88,0,0,1-2.55,4,18.48,18.48,0,0,1-3.41,3.49c-2.52,1.78-5.71,2.08-8.71,2.11a26,26,0,0,1-9.43-1.32c-1.16-.44-2.63-.94-3.07-2.17A30.55,30.55,0,0,1,19,39.4c-1-6.09-1-14,3.47-18.85,2.31-2.51,5.49-2.7,8.72-3q2.68-.22,5.37-.21,1.47,0,2.94.09l1.46.1c.21,0,1.15.2,1,.11a6.13,6.13,0,0,1,1.37,1.73,23.5,23.5,0,0,1,1.47,2.46,25.19,25.19,0,0,1,1.87,4.82,40.87,40.87,0,0,1,1.26,12.22c-.09,3.22,4.91,3.22,5,0Z" transform="translate(-5.66 -0.82)"/><path class="cls-5" d="M27.81,29.7c3.22,0,3.22-5,0-5s-3.22,5,0,5Z" transform="translate(-5.66 -0.82)"/><path class="cls-5" d="M38.06,29.43c3.22,0,3.22-5,0-5s-3.22,5,0,5Z" transform="translate(-5.66 -0.82)"/><path class="cls-5" d="M23.92,41.07a10.93,10.93,0,0,0,5.58,3.24,19.65,19.65,0,0,0,6.16.36,10.94,10.94,0,0,0,5.63-2.87,12.1,12.1,0,0,0,3-5.48,2.52,2.52,0,0,0-1.75-3.07A2.56,2.56,0,0,0,39.49,35l-.2.48A2.51,2.51,0,0,0,41,38.54a2.58,2.58,0,0,0,3.08-1.74l.19-.48L39.49,35c-.11.35-.22.69-.35,1-.06.17-.12.34-.19.5.12-.28-.11.21-.13.26a8.29,8.29,0,0,1-.53.91c-.23.35.19-.2-.08.11a4.27,4.27,0,0,1-.36.38s-.37.32-.24.22-.33.22-.38.25c-.29.2-.59.38-.89.56a3.21,3.21,0,0,1-1.42.54,15.21,15.21,0,0,1-2.24,0,14.49,14.49,0,0,1-1.85-.21c-.34-.07-.69-.16-1-.26-.17-.06-.34-.11-.5-.18.24.1-.06,0-.13-.09a8.11,8.11,0,0,1-1.73-1.43,2.5,2.5,0,1,0-3.53,3.54Z" transform="translate(-5.66 -0.82)"/><path class="cls-5" d="M22.07,38.45l-.08,0,.67-.09h-.08l.66.09-.08,0,.6.25a.18.18,0,0,1-.07-.05l.5.39a.74.74,0,0,1-.13-.12l.39.5a2.8,2.8,0,0,1-.32-.62l.26.6a17.42,17.42,0,0,1-.75-2.32,2.62,2.62,0,0,0-1.15-1.5,1.85,1.85,0,0,0-.93-.29,1.89,1.89,0,0,0-1,0,2.5,2.5,0,0,0-1.74,3.08,18.14,18.14,0,0,0,.63,2c.13.35.28.69.42,1a3.48,3.48,0,0,0,.22.43A3.56,3.56,0,0,0,21.22,43a4.91,4.91,0,0,0,.63.26l.06,0,.67.09a2.06,2.06,0,0,0,.82-.11,1.89,1.89,0,0,0,.85-.45,1.83,1.83,0,0,0,.65-.7,1.85,1.85,0,0,0,.29-.93,1.89,1.89,0,0,0,0-1A2.56,2.56,0,0,0,24,38.7l-.6-.25a2.5,2.5,0,0,0-1.33,0Z" transform="translate(-5.66 -0.82)"/><path class="cls-6" d="M59.29,51.75c-5-6.23-11.72-10.51-18.07-15C40.1,36,39,35.13,37.92,34.3l3-2.83c3-2.83,6.18-5.56,9-8.61a21.92,21.92,0,0,0,3.77-5.42A4.16,4.16,0,0,1,53.9,17l.2,0a3.19,3.19,0,0,0,1.65-.89,5.37,5.37,0,0,0,1.43-2.87c.6-2.83-3.45-4-4-1.2a3.22,3.22,0,0,1-.13.6h0c-.16,0-.34.07-.49.12a4.07,4.07,0,0,0-2.29,2.16,19.32,19.32,0,0,1-2.87,4.39c-2.66,3-5.72,5.58-8.61,8.29l-4.26,4c-.8-.68-1.59-1.38-2.37-2.09C29,26.59,26,23.61,22.7,20.92A48.87,48.87,0,0,0,17.28,17a19.21,19.21,0,0,1-5.09-3.95,2,2,0,0,0-3,0,2.43,2.43,0,0,0,0,3.2c2.59,3.16,6.44,4.75,9.59,7.15a119,119,0,0,1,9.06,8.07q1.69,1.57,3.43,3.07C27.74,37.94,24.22,41.39,20.87,45q-2.34,2.55-4.61,5.2c-1.32,1.53-2.55,3.18-4.33,4.11a2.38,2.38,0,0,0-.75,3.09,2.06,2.06,0,0,0,2.87.81,15.14,15.14,0,0,0,4.29-3.78c1.36-1.59,2.73-3.17,4.13-4.73q4.32-4.78,8.94-9.26,1.62-1.56,3.27-3.1c.83.65,1.67,1.3,2.53,1.92,3.18,2.32,6.45,4.49,9.61,6.84A51.91,51.91,0,0,1,56.33,55a2,2,0,0,0,3,0A2.43,2.43,0,0,0,59.29,51.75Z" transform="translate(-5.66 -0.82)"/></svg>